P2
# Written by pgmio::pgmwrite
22 16
255
  0   0   0   0   0   0   0   0 255   0   0   0   0   0   0   0   0   0 
  0   0   0   0   0   0   0   0   0   0   0   0 255   0   0   0   0   0 
  0   0   0   0   0   0   0   0   0   0   0   0   0   0   0   0 255   0 
  0   0   0   0   0   0   0   0   0   0   0   0   0   0   0   0   0   0 
  0   0 255   0   0   0   0   0   0   0   0   0   0   0   0   0   0   0 
  0   0   0   0   0   0 255   0   0   0   0   0   0   0   0   0   0   0 
  0   0   0   0   0   0   0   0   0   0 255   0   0   0   0   0   0   0 
  0   0   0   0   0   0   0   0   0   0   0   0   0   0 255   0   0   0 
  0   0   0   0   0   0   0   0   0   0 255 255 255 255 255 255 255 255 
255 255 255 255 255 255 255 255 255 255 255 255 255 255   0   0   0   0 
  0   0   0   0 255   0   0   0   0   0   0   0   0   0   0   0   0   0 
  0   0   0   0   0   0   0   0 255   0   0   0   0   0   0   0   0   0 
  0   0   0   0   0   0   0   0   0   0   0   0 255   0   0   0   0   0 
  0   0   0   0   0   0   0   0   0   0   0   0   0   0   0   0 255   0 
  0   0   0   0   0   0   0   0   0   0   0   0   0   0   0   0   0   0 
  0   0 255   0   0   0   0   0   0   0   0   0   0   0   0   0   0   0 
  0   0   0   0   0   0 255   0   0   0   0   0   0   0   0   0   0   0 
  0   0   0   0   0   0   0   0   0   0 255   0   0   0   0   0   0   0 
  0   0   0   0   0   0   0   0   0   0   0   0   0   0 255   0   0   0 
  0   0   0   0   0   0   0   0   0   0 
